<?xml version="1.0" standalone="no"?>
<!DOCTYPE svg PUBLIC "-//W3C//DTD SVG 20010904//EN"
 "http://www.w3.org/TR/2001/REC-SVG-20010904/DTD/svg10.dtd">
<svg version="1.0" xmlns="http://www.w3.org/2000/svg"
 width="640.000000pt" height="640.000000pt" viewBox="0 0 640.000000 640.000000"
 preserveAspectRatio="xMidYMid meet">
<metadata>
Created by potrace 1.14, written by Peter Selinger 2001-2017
</metadata>
<g transform="translate(0.000000,640.000000) scale(0.100000,-0.100000)"
fill="#000000" stroke="none">
<path d="M3079 5522 c-10 -7 -20 -8 -24 -3 -7 12 -46 6 -55 -8 -3 -6 -11 -6
-20 -1 -22 14 -30 12 -30 -7 0 -13 -3 -14 -12 -5 -8 8 -17 8 -30 1 -11 -6 -22
-8 -25 -5 -4 3 -11 2 -17 -2 -6 -5 -42 -19 -81 -32 -110 -36 -254 -113 -345
-185 -55 -44 -268 -265 -254 -265 7 0 -148 -205 -157 -208 -5 -2 -9 -10 -9
-17 0 -7 -13 -27 -29 -44 -16 -17 -27 -31 -25 -31 7 0 -127 -184 -143 -197 -8
-6 -14 -15 -15 -20 0 -7 -204 -300 -218 -313 -3 -3 -6 -11 -8 -18 -1 -7 -10
-25 -19 -39 -10 -14 -18 -33 -19 -41 -2 -8 -6 -18 -11 -21 -4 -3 -10 -13 -11
-21 -20 -84 -28 -110 -35 -110 -4 0 -3 -10 4 -21 9 -17 8 -20 -1 -14 -10 6
-12 1 -8 -19 4 -17 1 -26 -8 -26 -10 0 -11 -6 -4 -26 7 -16 7 -23 0 -19 -9 6
-14 -8 -11 -28 1 -4 -3 -25 -8 -47 -5 -22 -5 -42 -1 -45 5 -3 3 -16 -3 -28
-12 -24 -14 -133 -3 -177 3 -14 8 -41 10 -60 3 -37 5 -42 39 -129 24 -64 87
-150 150 -209 50 -45 178 -132 196 -132 6 0 11 -5 11 -10 0 -6 3 -9 8 -8 10 3
146 -55 150 -64 2 -4 10 -4 18 -1 8 3 14 0 14 -7 0 -6 4 -9 9 -6 5 4 22 1 38
-5 15 -7 33 -13 38 -15 72 -18 173 -46 185 -52 8 -4 31 -7 50 -7 19 0 40 -5
47 -11 7 -7 31 -11 53 -10 22 0 41 -3 43 -8 2 -5 25 -10 52 -13 28 -2 54 -8
59 -13 4 -4 21 -4 37 0 18 5 27 5 24 -1 -6 -9 21 -13 58 -10 9 1 17 -4 17 -12
0 -11 -15 -14 -62 -13 -35 1 -75 -2 -89 -7 -14 -4 -61 -49 -104 -100 -43 -51
-86 -99 -95 -107 -9 -8 -18 -19 -20 -25 -5 -16 -54 -89 -63 -96 -5 -3 -8 -10
-7 -15 1 -9 -23 -72 -41 -106 -5 -11 -5 -20 2 -24 8 -4 7 -9 -2 -14 -6 -5 -13
-22 -13 -38 -1 -17 2 -28 7 -25 4 2 7 -3 7 -12 0 -77 257 -327 460 -447 33
-19 56 -39 52 -43 -4 -5 -2 -6 3 -3 6 4 27 -2 48 -12 20 -10 37 -14 37 -9 0 5
6 9 13 9 20 0 65 51 78 88 16 47 0 77 -82 145 -38 32 -67 62 -64 67 2 4 -5 16
-16 26 -11 10 -17 24 -15 31 3 7 1 13 -5 13 -16 0 -7 149 10 159 7 5 12 11 11
15 0 4 15 33 34 65 53 86 48 111 -26 135 -10 3 -18 10 -18 16 0 11 84 5 121
-8 33 -13 68 -2 86 25 15 22 15 29 -1 81 -9 31 -18 62 -19 69 -4 14 -77 109
-77 99 0 -4 -10 0 -22 8 -12 9 -30 16 -40 16 -10 0 -18 7 -18 15 0 11 13 15
53 15 30 0 57 -3 60 -7 10 -9 108 -14 277 -12 231 2 268 4 263 12 -2 4 19 7
46 7 28 0 51 -4 51 -10 0 -5 -22 -19 -48 -31 -27 -12 -53 -30 -58 -38 -11 -21
-77 -154 -79 -161 -1 -3 -5 -18 -10 -34 -5 -20 -4 -31 6 -37 8 -5 10 -9 4 -9
-5 0 -3 -5 5 -10 18 -11 53 -13 47 -2 -3 4 9 7 26 8 38 0 96 9 155 24 24 6 47
8 52 5 5 -3 11 -1 15 5 10 16 162 13 168 -4 4 -11 -10 -16 -61 -22 -90 -10
-113 -12 -140 -13 -13 -1 -21 -5 -18 -9 2 -4 -11 -6 -30 -4 -19 2 -34 0 -34
-5 0 -5 -12 -8 -27 -6 -57 8 -87 -48 -51 -96 18 -23 24 -51 12 -51 -5 0 -20
11 -80 59 -6 5 -17 5 -24 1 -8 -5 -19 -3 -26 5 -16 15 -95 3 -131 -20 -13 -9
-23 -12 -23 -9 0 4 -13 -11 -30 -32 -16 -22 -34 -44 -39 -50 -6 -7 -7 -14 -4
-17 3 -3 1 -11 -3 -19 -24 -38 14 -151 65 -195 14 -12 22 -25 19 -29 -16 -15
-55 10 -91 56 -35 47 -40 50 -74 46 -83 -9 -123 -113 -67 -170 21 -20 37 -26
69 -26 67 0 84 -21 86 -105 2 -60 0 -71 -15 -73 -15 -3 -17 3 -13 37 3 26 -1
45 -9 52 -8 6 -12 14 -10 18 3 4 -10 8 -28 9 -24 2 -38 -4 -57 -25 -24 -28
-29 -36 -29 -50 0 -13 -43 -59 -67 -71 -29 -16 -103 -16 -103 0 0 6 -3 9 -6 5
-7 -7 -86 30 -95 45 -3 5 -9 9 -13 9 -3 -1 -27 9 -54 22 -106 50 -124 17 -123
-227 0 -94 2 -180 3 -190 4 -26 48 -71 73 -73 40 -4 370 -5 385 -1 8 1 34 22
57 46 23 23 44 42 47 42 3 0 5 -57 5 -127 0 -71 4 -171 7 -222 6 -80 11 -98
30 -118 13 -13 33 -23 44 -23 29 0 72 48 69 80 -1 14 3 36 8 50 7 16 7 32 1
43 -6 11 -5 17 3 17 7 0 10 14 7 40 -2 22 1 40 6 40 5 0 6 18 3 40 -3 22 -1
43 5 46 5 4 8 22 6 40 -2 19 0 34 5 34 5 0 7 15 6 33 -2 18 0 38 5 45 4 7 6
27 4 45 -2 23 1 33 13 35 14 3 17 -6 17 -50 0 -29 1 -60 3 -68 5 -21 59 -60
82 -60 10 0 16 -3 14 -8 -7 -9 396 -8 412 2 7 5 15 6 18 3 10 -11 55 53 49 69
-3 8 -2 12 4 9 6 -4 10 13 11 42 6 404 5 417 -18 436 -13 10 -27 15 -33 12 -5
-3 -10 -2 -10 4 0 16 -30 1 -80 -38 -67 -54 -137 -101 -149 -101 -6 0 -11 -4
-11 -9 0 -5 -18 -16 -39 -24 -39 -16 -78 -15 -112 3 -53 29 -109 -3 -109 -62
0 -19 -5 -28 -16 -28 -13 0 -15 12 -12 68 2 37 7 70 12 73 10 8 14 99 4 92 -5
-2 -8 7 -8 20 0 14 -17 43 -40 70 -22 25 -40 48 -40 51 0 3 26 4 58 4 42 -1
72 5 106 21 55 27 68 21 38 -17 -40 -49 -63 -102 -60 -135 3 -35 4 -36 49 -90
55 -65 107 -49 300 94 43 32 79 57 79 56 0 -7 117 100 173 157 63 65 121 170
108 196 -4 8 -5 26 -1 40 7 26 2 53 -9 46 -3 -2 -6 6 -7 17 -1 31 -7 50 -22
65 -7 8 -10 17 -7 22 3 5 2 10 -2 12 -10 4 -80 111 -79 119 1 4 -10 16 -24 28
-14 11 -22 20 -18 21 4 0 -18 27 -50 59 -59 61 -123 91 -196 91 -46 0 -76 11
-76 26 0 9 10 14 28 14 15 -1 43 2 62 5 19 3 54 9 77 12 24 3 40 9 37 14 -3 5
6 5 20 -1 16 -6 27 -6 31 0 4 6 20 10 36 10 20 0 28 4 23 12 -4 7 -3 8 5 4 17
-11 92 4 85 16 -4 6 2 6 14 -1 15 -8 23 -8 27 0 4 6 13 8 20 5 7 -2 16 -1 21
4 5 4 38 16 74 25 36 9 70 18 75 19 6 2 17 6 25 9 8 3 44 17 80 30 255 95 408
206 493 356 18 31 32 58 32 61 1 6 23 76 32 100 9 24 12 60 12 128 0 38 5 62
11 62 6 0 9 4 6 9 -4 5 -8 35 -11 68 -2 32 -7 81 -11 108 -4 28 -7 60 -8 73 0
12 -5 22 -10 22 -4 0 -6 9 -3 20 3 11 1 20 -5 20 -6 0 -8 9 -5 20 3 10 1 20
-4 22 -5 2 -11 18 -13 36 -7 50 17 39 44 -20 29 -64 48 -88 69 -88 9 0 47 20
84 45 37 25 67 42 67 38 0 -5 4 -3 8 2 14 21 109 84 116 78 3 -3 6 -2 6 4 0 8
119 110 136 116 31 11 197 205 271 318 35 54 69 99 74 99 6 0 8 4 4 9 -3 5 6
18 20 29 13 11 23 21 21 23 -3 2 16 24 40 48 24 24 44 40 44 36 0 -4 10 4 21
19 12 15 23 25 26 23 2 -3 15 5 29 18 26 24 201 115 222 115 18 0 40 39 35 61
-5 20 -48 47 -83 54 -10 2 -55 15 -101 30 -46 15 -100 28 -120 28 -21 1 -35 5
-33 9 6 9 -73 21 -86 13 -5 -3 -10 0 -10 8 0 13 -34 17 -46 4 -4 -3 -13 0 -21
8 -10 10 -20 12 -38 5 -14 -5 -25 -5 -27 0 -8 25 -326 27 -498 3 -19 -2 -46
-6 -59 -7 -14 -2 -26 -7 -28 -13 -2 -5 -18 -7 -35 -5 -23 4 -29 2 -23 -8 5 -9
4 -11 -3 -6 -16 10 -83 -4 -76 -16 4 -6 -2 -5 -14 1 -11 6 -22 7 -24 3 -4 -9
-119 -46 -135 -43 -7 1 -13 -3 -13 -9 0 -5 -6 -10 -12 -10 -7 0 -57 -20 -110
-44 -53 -24 -99 -41 -102 -38 -3 3 -6 0 -6 -6 0 -10 -55 -28 -63 -20 -5 5 -40
-33 -54 -59 -6 -12 -8 -23 -4 -23 8 0 19 -27 17 -41 -1 -4 21 -25 47 -47 53
-43 75 -45 144 -8 18 9 36 16 39 15 4 0 10 4 13 9 7 11 91 55 91 47 0 -3 10 1
23 10 13 8 27 12 30 8 4 -3 7 -2 7 4 0 8 64 35 95 39 6 0 22 6 37 12 15 6 38
13 50 15 13 2 30 7 38 10 25 9 182 34 240 37 147 9 458 -4 473 -19 14 -14 -4
-34 -61 -67 -26 -15 -48 -27 -49 -26 -1 0 -18 -13 -37 -30 -19 -16 -37 -31
-42 -32 -12 -2 -183 -183 -268 -283 -43 -51 -83 -93 -89 -93 -6 0 -8 -3 -4 -6
10 -10 -121 -140 -203 -202 -41 -31 -77 -61 -79 -65 -1 -4 -9 -13 -15 -20 -7
-6 -10 -21 -8 -34 3 -17 0 -23 -13 -23 -11 0 -15 5 -11 15 3 8 1 15 -4 15 -8
0 -21 28 -26 59 -2 8 -6 17 -11 20 -8 6 -24 32 -52 86 -9 16 -19 32 -22 35 -3
3 -34 48 -69 100 -93 140 -117 173 -304 425 -269 364 -306 406 -450 513 -39
29 -80 61 -91 70 -11 9 -21 15 -23 14 -1 -1 -25 9 -52 23 -27 14 -52 25 -55
25 -3 0 -19 7 -35 15 -16 8 -32 15 -35 15 -3 0 -34 11 -69 24 -35 12 -78 22
-95 22 -17 -1 -31 2 -31 7 0 4 -12 7 -26 7 -14 0 -23 3 -21 8 5 6 -53 10 -227
15 -42 1 -76 -3 -87 -11z"/>
<path d="M760 5118 c0 -4 -10 -7 -22 -7 -47 2 -122 -9 -126 -19 -1 -5 -14 -7
-27 -4 -16 3 -25 0 -25 -9 0 -10 -3 -10 -12 -1 -7 7 -17 8 -27 3 -9 -5 -32
-11 -51 -13 -19 -1 -38 -7 -41 -11 -3 -5 -22 -9 -41 -10 -20 -1 -34 -5 -32 -8
4 -7 -64 -24 -79 -21 -4 1 -7 -2 -7 -7 0 -8 -53 -26 -57 -19 0 2 -11 -9 -23
-24 -17 -22 -19 -31 -10 -48 9 -16 57 -45 80 -47 14 -2 127 -67 137 -80 6 -8
13 -13 16 -11 21 13 267 -239 250 -256 -4 -3 -2 -6 4 -6 6 0 27 -25 47 -55 20
-30 34 -55 32 -55 -3 0 6 -12 19 -26 14 -15 22 -32 18 -38 -3 -6 -3 -8 1 -4 5
4 32 -21 61 -55 29 -34 76 -83 106 -109 30 -25 65 -56 79 -68 60 -51 68 -58
76 -61 5 -2 68 -43 141 -91 72 -49 137 -88 142 -88 11 0 56 46 56 58 1 4 9 23
20 42 11 19 18 38 17 43 -1 4 2 7 6 7 4 0 6 15 4 34 -3 25 -16 46 -47 75 -23
22 -45 38 -47 35 -3 -2 -17 7 -31 20 -15 14 -27 22 -27 19 0 -12 -112 103
-156 160 -25 31 -43 57 -40 57 3 0 -5 11 -17 24 -26 29 -42 49 -46 58 -4 10
-175 184 -181 183 -3 0 -36 25 -75 56 -38 32 -92 70 -120 86 -38 22 -51 36
-53 56 -2 15 2 27 8 27 6 0 8 4 5 10 -3 5 0 7 9 4 8 -3 126 -7 263 -8 230 -3
308 -8 321 -20 2 -3 13 -1 23 5 15 7 19 6 19 -5 0 -12 5 -14 25 -6 14 5 25 6
25 1 0 -8 35 -21 70 -26 29 -4 99 -25 137 -42 21 -9 41 -16 46 -15 4 1 7 -3 7
-10 0 -6 3 -9 6 -5 7 7 127 -51 132 -64 2 -5 8 -7 13 -3 5 3 9 0 9 -7 0 -7 3
-9 6 -6 4 3 16 1 27 -4 55 -30 73 -29 118 10 45 38 49 45 56 96 5 34 -22 66
-60 72 -11 2 -24 7 -27 11 -3 4 -12 8 -20 10 -8 2 -40 15 -70 29 -30 14 -60
27 -66 28 -5 2 -30 12 -54 24 -24 11 -47 21 -51 21 -4 0 -20 5 -36 12 -15 6
-31 12 -35 13 -5 2 -9 3 -10 4 -2 2 -14 5 -28 7 -13 2 -27 8 -30 12 -3 4 -17
9 -33 10 -15 1 -42 8 -61 16 -25 10 -37 11 -45 3 -8 -8 -11 -7 -11 2 0 9 -9
12 -25 9 -14 -3 -22 -1 -18 5 3 6 -8 8 -30 5 -21 -2 -38 1 -40 7 -4 12 -467
15 -467 3z"/>
<path d="M5439 4896 c-2 -2 -27 -6 -56 -9 -29 -3 -57 -8 -62 -12 -6 -3 -19 -2
-28 4 -13 6 -29 5 -53 -5 -38 -16 -37 -16 -62 -3 -11 6 -18 4 -22 -6 -4 -11
-13 -14 -30 -9 -13 3 -27 1 -31 -6 -4 -6 -15 -8 -26 -5 -11 4 -19 2 -19 -5 0
-6 -11 -8 -25 -6 -16 3 -23 1 -19 -6 4 -6 -1 -8 -15 -3 -13 4 -21 2 -21 -5 0
-7 -8 -9 -19 -5 -11 3 -22 1 -26 -5 -3 -6 -11 -8 -16 -5 -5 4 -9 2 -9 -2 0 -5
-10 -9 -22 -10 -11 -1 -24 -7 -28 -13 -4 -6 -11 -10 -16 -9 -25 4 -45 -2 -38
-13 5 -8 2 -9 -9 -5 -10 3 -17 2 -17 -3 0 -6 -8 -10 -18 -10 -10 0 -22 -3 -26
-7 -4 -5 -11 -8 -14 -9 -16 -1 -82 -38 -82 -46 0 -4 -6 -8 -13 -8 -17 0 -44
-33 -39 -48 2 -7 -1 -12 -8 -12 -6 0 -8 -5 -3 -12 4 -7 8 -16 9 -20 1 -5 2
-11 3 -15 1 -5 15 -23 31 -42 16 -18 27 -38 23 -44 -3 -5 -2 -8 3 -5 5 3 20
-8 34 -25 14 -17 18 -28 10 -23 -13 7 -13 6 0 -6 22 -20 82 -108 73 -108 -4 0
3 -7 15 -16 12 -8 22 -20 22 -26 0 -6 20 -30 45 -54 50 -49 86 -56 133 -27 36
24 192 178 192 191 0 5 7 12 15 16 8 3 15 12 15 20 0 8 6 19 13 23 6 4 30 31
52 58 60 75 85 102 144 159 87 83 106 101 116 105 12 6 28 19 66 53 l29 28
-21 21 c-17 17 -36 23 -74 24 -28 1 -56 4 -62 8 -5 4 -12 5 -14 3z"/>
<path d="M831 4874 c-10 -8 -22 -10 -26 -6 -5 4 -5 2 -2 -5 4 -6 2 -13 -5 -15
-11 -4 84 -108 100 -108 10 0 157 -143 209 -204 24 -27 40 -54 36 -60 -3 -6
-3 -8 2 -4 4 4 28 -20 53 -55 49 -68 145 -167 162 -167 5 0 10 -7 10 -17 0 -9
3 -14 6 -10 4 3 22 -6 42 -21 19 -15 44 -26 54 -24 10 2 18 -1 18 -6 0 -15 34
-3 61 21 26 24 40 44 66 95 9 17 21 32 25 32 5 0 6 5 3 10 -3 6 -1 10 4 10 6
0 11 7 11 15 0 8 4 15 8 15 4 0 16 15 27 33 10 17 24 37 29 43 6 6 18 22 26
35 8 12 25 33 36 45 12 13 20 25 17 28 -3 2 -1 10 3 17 11 18 12 59 1 59 -4 0
-6 4 -2 9 6 10 -77 64 -104 68 -8 1 -17 6 -20 11 -3 5 -24 15 -46 23 -22 8
-51 19 -64 26 -14 7 -28 10 -33 7 -4 -3 -8 -1 -8 5 0 6 -7 7 -17 4 -10 -4 -14
-2 -9 5 3 6 2 13 -4 17 -5 3 -10 1 -10 -6 0 -8 -4 -8 -15 1 -8 7 -15 9 -15 4
0 -4 -5 -3 -11 3 -6 6 -18 9 -25 6 -8 -3 -14 -1 -14 5 0 12 -97 35 -111 26 -5
-3 -9 0 -9 6 0 8 -9 10 -24 6 -14 -3 -27 -2 -30 3 -3 5 -22 9 -42 9 -20 0 -39
4 -43 9 -5 7 -26 10 -33 3 -9 -6 -45 -9 -58 -3 -31 12 -210 10 -229 -3z"/>
<path d="M2945 2235 c-16 -7 -33 -11 -37 -8 -5 2 -8 -1 -8 -7 0 -6 -10 -15
-23 -21 -45 -20 -78 -131 -65 -214 4 -27 57 -85 77 -85 23 1 101 78 170 168
54 71 80 122 62 122 -4 0 -13 11 -20 23 -7 13 -18 24 -24 25 -7 1 -27 5 -44 8
-23 4 -33 2 -33 -6 0 -9 -4 -9 -12 -3 -9 7 -23 6 -43 -2z"/>
<path d="M2489 1118 c-10 -4 -19 -5 -19 -2 0 10 -71 -55 -105 -96 -28 -35 -31
-82 -6 -104 19 -17 41 -18 273 -18 139 1 280 6 313 12 33 6 65 11 71 12 6 1
21 17 34 36 39 56 21 144 -33 157 -34 9 -505 11 -528 3z"/>
<path d="M3359 1113 c-32 -13 -54 -48 -50 -80 1 -11 -2 -24 -8 -27 -16 -10 8
-65 35 -83 19 -12 47 -15 114 -14 50 1 90 -1 90 -6 0 -4 117 -8 261 -7 l261 1
28 29 c32 34 28 55 -25 120 -62 75 -72 77 -394 78 -196 1 -292 -3 -312 -11z"/>
</g>
</svg>
